<?xml version="1.0" encoding="UTF-8"?>
<svg width="189px" height="189px" viewBox="0 0 189 189" version="1.1" xmlns="http://www.w3.org/2000/svg" xmlns:xlink="http://www.w3.org/1999/xlink">
    <title>logo</title>
    <defs>
        <path d="M0,0 L189,0 L189,189 L0,189 L0,0 Z" id="path-1"></path>
    </defs>
    <g id="logo" stroke="none" fill="none" xlink:href="#path-1">
        <use fill="#FFFFFF" fill-rule="evenodd" xlink:href="#path-1"></use>
        <rect id="Rectangle" fill="#132952" fill-rule="evenodd" x="0" y="0" width="189" height="189"></rect>
        <polygon id="Path" fill="#FFFFFF" fill-rule="evenodd" points="39.6523373 68.5598438 72.8981205 68.5598438 72.8981205 78.3176153 50.4002892 78.3176153 50.4002892 88.0753867 72.8981205 88.0753867 72.8981205 96.9427842 50.4002892 96.9427842 50.4002892 106.700556 72.8616867 106.700556 72.8616867 116.458327 39.6523373 116.458327"></polygon>
        <path d="M138.005205,91.4733443 C139.883448,91.6565304 141.748203,91.0122006 143.110375,89.7093527 C144.472546,88.4065049 145.196212,86.5751412 145.091566,84.6955999 C145.181684,83.0300965 144.580656,81.4010054 143.42969,80.1910726 C142.278724,78.9811398 140.679278,78.2970204 139.007133,78.2994379 L129.479711,78.2994379 L129.479711,91.4551734 L138.005205,91.4733443 Z M118.804627,68.5598438 L139.189301,68.5598438 C143.523752,68.4673571 147.71478,70.1103247 150.826263,73.1217686 C153.937745,76.1332125 155.710455,80.2622383 155.748434,84.5865746 C155.909983,90.502015 152.499816,95.9373521 147.095422,98.378285 L158.517398,116.458327 L146.366747,116.458327 L136.675373,101.049407 L129.479711,101.049407 L129.479711,116.549182 L118.804627,116.549182 L118.804627,68.5598438 Z" id="Shape" fill="#FFFFFF" fill-rule="nonzero"></path>
        <path d="M95.9060241,108.117886 C92.9382575,108.117886 90.1959281,106.538597 88.7120448,103.974921 C87.2281615,101.411246 87.2281615,98.2526676 88.7120448,95.6889923 C90.1959281,93.1253169 92.9382575,91.5460278 95.9060241,91.5460279 C99.0050945,91.3411927 101.960791,92.8741591 103.572666,95.5223168 C105.18454,98.1704746 105.18454,101.493439 103.572666,104.141597 C101.960791,106.789754 99.0050945,108.322721 95.9060241,108.117886 M104.085398,83.2055864 L104.085398,87.5666016 C103.156337,84.6592581 99.2397108,82.6059468 94.1207711,82.6059468 C89.5967219,82.637406 85.278035,84.4939145 82.1483414,87.7526311 C79.0186477,91.0113477 77.3444218,95.3948124 77.506988,99.9046403 C77.3574677,104.367317 79.0438088,108.696917 82.1745568,111.888398 C85.3053048,115.07988 89.6081771,116.855679 94.0843373,116.803574 C99.0575422,116.803574 102.919518,115.09551 104.322217,112.769635 L104.322217,113.496471 C104.596523,115.980176 103.412232,118.39937 101.28,119.710918 C99.1744695,120.831917 96.7918239,121.329938 94.412241,121.146418 L77.8348916,121.146418 L77.8348916,130.90419 L95.9060241,130.90419 C100.262433,131.049151 104.547431,129.773275 108.111325,127.270011 C113.02988,123.41778 113.95894,117.839315 113.95894,110.916204 L113.95894,83.2055864 L104.085398,83.2055864 Z" id="Shape" fill="#FFFFFF" fill-rule="nonzero"></path>
        <rect id="Rectangle" fill="#9DA3A3" fill-rule="evenodd" x="77.7984578" y="68.5598438" width="36.1240482" height="9.75777144"></rect>
    </g>
</svg>