<?xml version="1.0" encoding="UTF-8"?>
<svg width="189px" height="189px" viewBox="0 0 189 189" version="1.1" xmlns="http://www.w3.org/2000/svg" xmlns:xlink="http://www.w3.org/1999/xlink">
    <title>logo</title>
    <defs>
        <path d="M0,0 L189,0 L189,189 L0,189 L0,0 Z" id="path-1"></path>
    </defs>
    <g id="logo" stroke="none" fill="none" xlink:href="#path-1" fill-rule="evenodd">
        <use fill="#1A1A1A" xlink:href="#path-1"></use>
        <g id="CloudRaker_Monogram_Black_RGB" transform="translate(57.5, 17.3453)" fill="#F3F2F2" stroke-width="1">
            <g id="svg1" transform="translate(-0, 0.0007)">
                <path d="M37.5005562,148.915294 C19.6123673,148.915294 5.05868049,134.289525 5.05868049,116.311682 L5.05868049,37.6885055 C5.05868049,19.7106627 19.611438,5.08416488 37.4996269,5.08416488 C55.3870723,5.08416488 69.9406476,19.7106627 69.9406476,37.6885055 L69.9406476,116.311682 C69.9406476,134.289525 55.388745,148.915294 37.5005562,148.915294 Z M37.5005562,0 C16.8227927,0 0,16.9071817 0,37.6885055 L0,116.311682 C0,137.093006 16.8219191,153.999254 37.4996269,153.999254 C58.1765726,153.999254 74.9994396,137.093006 74.9994396,116.311682 L74.9994396,37.6885055 C74.9994396,16.9071817 58.1782453,0 37.5005562,0" id="path2" fill-rule="nonzero" transform="translate(37.4997, 76.9996) scale(-1, 1) rotate(-180) translate(-37.4997, -76.9996)"></path>
                <path d="M32.2088876,38.0914044 C31.3970722,39.1067767 29.1582608,38.8336946 28.7506804,36.9932856 C26.3958953,26.7573764 23.8970725,21.7817532 21.111661,21.7817532 C20.6776892,21.7817532 20.3351581,21.9597609 20.0346303,22.3411793 C18.0907524,24.8062029 18.6440618,33.880299 21.4805835,46.0277829 C24.7772826,60.5700587 29.3469038,70.7273307 32.5941654,70.7273307 C33.1786799,70.7273307 33.6587438,70.5973271 34.0259937,70.3401219 L34.2441876,61.0969838 C34.2441876,59.8301967 34.7307565,59.187277 35.6916277,59.187277 C36.1189088,59.187277 37.1424132,59.3585604 37.4263999,60.9456866 L39.5457065,72.6495522 C39.6527591,73.2891098 39.7218972,73.9536967 39.321751,74.4286952 C39.1604287,74.621459 38.8574848,74.8513934 38.336161,74.8513934 C37.6453373,74.8513934 37.0097126,74.4038526 36.5956273,73.6664188 L36.4712902,73.4951354 C35.0296116,74.4072147 33.5814281,74.8513934 32.0655933,74.8513934 C27.9544768,74.8513934 20.2117502,71.1560061 14.5494865,46.4060259 C11.454496,32.931236 11.5278159,24.3874272 14.7734606,20.2872731 C16.1542344,18.5421253 18.0833368,17.6576905 20.50726,17.6576905 C26.9129444,17.6576905 29.7593164,24.6076487 32.5118316,36.6200858 C32.6328233,37.1729744 32.5257707,37.6950431 32.2088876,38.0914044" id="path3" transform="translate(25.9555, 46.2545) scale(-1, 1) rotate(-180) translate(-25.9555, -46.2545)"></path>
                <path d="M55.4396693,122.154556 C53.8803444,115.413799 51.0116698,112.408401 46.137432,112.408401 L45.9201673,112.408401 L49.9117789,129.318758 C50.1126883,130.376344 50.2492919,130.680807 52.0310854,130.680807 C53.1755816,130.680807 54.1306913,130.235694 54.7975397,129.393286 C55.9535589,127.930373 56.1806739,125.360188 55.4396693,122.154556 Z M60.9857736,131.768092 C59.3145639,133.884945 56.5035044,134.957287 52.6354865,134.957287 L43.7201996,134.957287 C41.9218649,134.957287 41.58937,133.773994 41.5300822,133.413122 C41.3406958,132.277833 42.2134717,131.696926 42.5180883,131.493515 L43.0812295,131.140862 C43.1734137,131.07474 43.2442245,130.801658 43.0500058,129.896489 L32.8486011,85.5467978 C32.6179549,84.4677312 32.2787692,84.1500071 32.012067,83.9992703 L31.2545213,83.6202801 C30.6287469,83.3042371 29.8918312,82.8292386 29.7758575,82.068083 C29.5550616,81.4044299 29.7732556,80.9557684 29.9223114,80.7473145 C30.2228392,80.3285388 30.7473225,80.1167227 31.4825656,80.1167227 L38.961192,80.1167227 C40.0824563,80.1167227 40.810451,80.5934023 41.1529821,81.660888 C41.3406958,82.7896398 40.4710794,83.3737217 40.1633033,83.5806814 L39.6033216,83.9297856 C39.3793661,84.0919165 39.455195,84.7043899 39.5555568,85.1743452 L44.9172928,108.13192 L45.6105326,108.13192 L45.974437,85.368043 C45.974437,84.7639749 45.6880342,84.297195 45.1561167,83.9992703 L44.4019164,83.6202801 C43.7744693,83.3042371 43.0368101,82.8275575 42.9199072,82.0647208 C42.712307,81.434129 42.886825,80.9989161 43.0697065,80.7456334 C43.369305,80.3285388 43.8930449,80.1167227 44.6275445,80.1167227 L53.3138578,80.1167227 C54.435308,80.1167227 55.1631168,80.5934023 55.5056479,81.660888 C55.6405788,82.4717289 55.2356004,83.2231717 54.4780547,83.6038429 L53.7996833,83.981152 C53.2809615,84.2723524 52.9943728,84.7589316 52.9482807,85.3895234 L52.3587481,109.467632 C56.0176789,110.973506 60.4737426,114.308395 62.1434655,121.6945 C63.1660407,126.113125 62.7759306,129.502556 60.9857736,131.768092" id="path4" fill-rule="nonzero" transform="translate(46.1906, 107.537) scale(-1, 1) rotate(-180) translate(-46.1906, -107.537)"></path>
            </g>
        </g>
    </g>
</svg>